<svg width="334" height="105" viewBox="0 0 334 105" fill="none" xmlns="http://www.w3.org/2000/svg">
<path d="M28.9883 58.4464L28.2366 52.6206V52.1038C28.8943 50.9449 29.787 50.3654 30.9146 50.3654L69.2525 50.4124C71.1631 50.4124 72.7135 49.8016 73.9037 48.5801L74.8434 49.5197C73.0894 52.7459 72.2124 58.5874 72.2124 67.0443C72.2124 68.3598 72.4943 70.8969 73.0581 74.6555C73.6532 78.4454 73.9507 80.9511 73.9507 82.1727C73.9507 83.4256 73.7471 84.3496 73.34 84.9447C72.9328 85.5398 72.4473 85.8373 71.8835 85.8373C71.3197 85.8373 70.8186 85.5085 70.38 84.8507C69.9729 84.1929 69.7693 83.2846 69.7693 82.1257L70.521 71.7425C70.521 68.9862 70.0355 66.919 69.0645 65.5408C68.0936 64.1314 66.778 63.4266 65.118 63.4266C61.3907 63.4266 59.527 66.2299 59.527 71.8365C59.527 73.9977 59.8403 77.1299 60.4667 81.233C61.1245 85.3362 61.4533 87.9046 61.4533 88.9382C61.4533 89.9718 61.2184 90.7549 60.7486 91.2873C60.2788 91.8511 59.7306 92.133 59.1042 92.133C58.5091 92.133 57.9766 91.8668 57.5068 91.3343C57.0683 90.8332 56.849 90.1441 56.849 89.2671L57.6947 74.2796C57.6947 68.7983 56.5202 66.0576 54.171 66.0576L50.6003 66.1516H13.672C10.8843 66.1516 8.83274 66.6841 7.51723 67.749C6.01378 69.0019 5.26206 72.5412 5.26206 78.3671C5.26206 80.7162 5.62226 84.1773 6.34266 88.7503C7.06306 93.3546 7.42326 96.8156 7.42326 99.1334C7.42326 102.485 6.23303 104.161 3.85258 104.161C1.28419 104.161 0 102.438 0 98.9925C0 96.6434 0.516809 93.1666 1.55043 88.5623C2.58405 83.958 3.10086 80.4657 3.10086 78.0852L2.86594 62.346V7.56421C2.86594 5.62226 2.27083 4.07183 1.0806 2.91293L2.02025 1.92629C3.30445 3.14784 4.87054 3.75861 6.71852 3.75861H67.0443C68.9549 3.75861 70.521 3.14784 71.7425 1.92629L72.6822 2.91293C71.304 4.29108 70.615 6.98476 70.615 10.9939V13.1082C70.615 16.6475 71.304 19.075 72.6822 20.3905L71.7425 21.2832C70.1765 19.6857 66.4961 18.887 60.7016 18.887L37.3512 19.9676C31.588 19.9676 27.9234 19.1689 26.3573 17.5715L25.3706 18.5112C26.5922 19.7014 27.203 21.2832 27.203 23.2564C27.203 25.1984 26.5922 26.7645 25.3706 27.9547L26.3573 28.8474C27.8607 27.2813 31.0242 26.4982 35.8478 26.4982L55.5335 27.5788C60.3884 27.5788 63.5989 26.7958 65.165 25.2297L66.1516 26.1694C64.7734 27.5475 64.0844 30.4291 64.0844 34.8142V36.6465C64.0844 39.9979 64.7734 42.3627 66.1516 43.7409L65.165 44.7275C63.6615 43.1614 60.4824 42.3784 55.6275 42.3784L35.9417 43.412C31.1182 43.412 27.9234 42.6289 26.3573 41.0629L25.4176 42.0025C26.7331 43.3493 27.3909 45.6985 27.3909 49.0499L27.2969 52.7146L26.4982 58.3525C26.4982 59.4801 26.9054 60.0439 27.7198 60.0439C28.5655 60.0439 28.9883 59.5114 28.9883 58.4464Z" fill="url(#paint0_linear_434_833)"/>
<path d="M83.1124 69.2525L83.2533 76.7227C83.2533 78.2262 83.0184 79.3537 82.5486 80.1055C82.0787 80.8885 81.5149 81.28 80.8572 81.28C79.5417 81.28 78.8839 80.0115 78.8839 77.4744C78.8839 74.9374 79.1971 72.1184 79.8236 69.0175C80.45 65.948 80.9981 63.8338 81.468 62.6749L104.02 7.18835C104.333 6.37398 104.489 5.57528 104.489 4.79223C104.489 4.00919 104.223 3.2418 103.691 2.49008L105.006 1.64439C105.915 2.99123 107.324 3.66465 109.235 3.66465H130.847C132.726 3.66465 134.12 2.99123 135.028 1.64439L136.391 2.49008C135.858 3.2418 135.592 3.96221 135.592 4.65128C135.592 5.34036 135.78 6.17039 136.156 7.14137L159.365 62.7219C160.086 64.4759 161.198 65.854 162.701 66.8563L162.137 67.749C160.602 66.7467 158.895 66.2456 157.016 66.2456H147.807C147.87 66.9346 147.901 67.4201 147.901 67.702C147.901 68.7357 147.479 69.2525 146.633 69.2525C146.257 69.2525 145.913 69.0959 145.599 68.7826C145.317 68.5007 145.176 68.0779 145.176 67.5141C145.176 66.9816 145.208 66.5588 145.27 66.2456H139.586C138.207 66.2456 137.315 66.9973 136.908 68.5007C136.406 70.3487 136.156 72.4629 136.156 74.8434C136.156 77.2552 136.312 79.4477 136.626 81.421C136.939 83.3942 137.095 84.7411 137.095 85.4615C137.095 86.2132 136.908 86.8083 136.532 87.2468C136.187 87.7166 135.749 87.9516 135.216 87.9516C134.684 87.9516 134.229 87.7323 133.854 87.2938C133.478 86.8553 133.29 86.2445 133.29 85.4615C133.29 84.6784 133.478 83.1593 133.854 80.9042C134.261 78.649 134.464 76.9576 134.464 75.83V62.6279C134.151 61.7822 133.995 60.9992 133.995 60.2788C133.995 59.5584 134.276 58.791 134.84 57.9766L133.619 57.084C132.679 58.4308 131.27 59.1042 129.39 59.1042H110.08C108.201 59.1042 106.792 58.4464 105.852 57.1309L104.63 57.9766C105.226 58.8223 105.523 59.6054 105.523 60.3258C105.523 61.0462 105.413 61.8135 105.194 62.6279V62.6749C104.912 63.7398 104.771 64.5542 104.771 65.118C104.771 65.6818 105.085 66.4178 105.711 67.3262L104.489 68.2188C103.55 66.9033 102.14 66.2456 100.261 66.2456H83.2533C83.1593 66.8407 83.1124 67.843 83.1124 69.2525ZM114.92 46.09H123.893C125.773 46.09 127.464 46.5912 128.967 47.5935L129.578 46.7008C128.106 45.6985 127.041 44.3047 126.383 42.5193L120.417 27.25C119.728 25.4646 119.367 23.6479 119.336 21.8H118.725C118.663 23.8672 118.349 25.6839 117.786 27.25L112.383 42.4723C111.725 44.289 110.676 45.6985 109.235 46.7008L109.845 47.6404C111.318 46.6068 113.009 46.09 114.92 46.09ZM145.411 81.7968C145.411 79.6356 145.819 76.9263 146.633 73.6688C147.541 77.4274 147.995 79.8705 147.995 80.9981C147.995 82.6582 147.557 83.4882 146.68 83.4882C145.834 83.4882 145.411 82.9244 145.411 81.7968Z" fill="url(#paint1_linear_434_833)"/>
<path d="M198.173 79.9645L198.643 75.2193V66.4335C190.217 65.995 183.922 64.8518 179.756 63.0038C175.59 61.1245 172.52 58.7753 170.547 55.9564C169.357 54.2963 168.433 52.4483 167.775 50.4124C167.149 48.3452 166.099 46.7947 164.627 45.7611L165.332 44.7745C166.742 45.7141 168.261 46.184 169.889 46.184C171.549 46.184 173.664 46.1213 176.232 45.996C178.8 45.8707 181.698 45.7298 184.924 45.5732C188.15 45.3853 190.452 45.26 191.83 45.1973C193.208 45.1347 194.226 44.9468 194.884 44.6335C195.542 44.289 196.012 43.6782 196.294 42.8012L198.408 43.506C198.314 43.7565 198.267 44.0854 198.267 44.4926C198.267 45.5262 199.128 46.7008 200.851 48.0163C202.574 49.3318 205.69 49.9896 210.2 49.9896C213.239 49.9896 215.4 49.4728 216.684 48.4391C217.248 47.9693 217.53 47.4055 217.53 46.7478C217.53 45.213 216.684 44.195 214.993 43.6939C213.301 43.1927 211.25 42.7699 208.838 42.4254C206.458 42.0495 204.061 41.7519 201.65 41.5327C199.269 41.3134 196.685 41.0002 193.897 40.593C191.11 40.1858 188.479 39.7473 186.004 39.2775C183.53 38.7764 181.118 38.056 178.769 37.1163C176.451 36.1767 174.462 35.0804 172.802 33.8275C171.142 32.5433 169.795 30.9146 168.762 28.9413C167.759 26.9367 167.258 24.6659 167.258 22.1288C167.258 19.5918 167.65 17.274 168.433 15.1754C169.247 13.0768 170.344 11.2758 171.722 9.7724C173.1 8.26895 174.76 6.93778 176.702 5.77887C178.675 4.61996 180.727 3.68031 182.857 2.95991C185.018 2.23951 187.367 1.66005 189.904 1.22155C194.32 0.407183 198.486 0 202.401 0C206.317 0 209.292 0.0626436 211.328 0.187931C213.395 0.281896 215.807 0.485488 218.563 0.798705C221.351 1.0806 223.857 1.56609 226.081 2.25517C228.336 2.91293 230.56 3.75861 232.752 4.79223C237.325 6.92211 240.536 10.2266 242.384 14.7056C243.135 16.303 244.169 17.7908 245.484 19.1689L244.874 20.2495C243.558 19.3412 242.039 18.887 240.316 18.887H239.706C237.2 18.981 233.614 19.1689 228.947 19.4508C224.311 19.7014 221.32 19.858 219.973 19.9207C218.657 19.9833 217.702 20.1712 217.107 20.4844C216.543 20.7977 216.136 21.3928 215.885 22.2698L213.818 21.706C213.912 21.4241 213.959 21.1265 213.959 20.8133C213.959 19.4978 212.894 18.3702 210.764 17.4306C208.634 16.4596 206.223 15.9741 203.529 15.9741C198.267 15.9741 195.636 17.0077 195.636 19.075C195.636 20.923 199.582 22.2698 207.475 23.1155C209.323 23.3347 211.422 23.554 213.771 23.7732C221.946 24.6189 228.211 25.7308 232.564 27.109C241.71 29.9906 246.283 35.4876 246.283 43.5999C246.283 46.92 245.594 49.9113 244.216 52.5736C242.838 55.2046 241.037 57.3502 238.813 59.0102C236.62 60.6703 234.021 62.0485 231.014 63.1447C225.595 65.118 219.409 66.1046 212.456 66.1046C210.576 66.1046 209.464 66.089 209.12 66.0576C207.429 66.0576 206.583 67.3575 206.583 69.9572V71.0848C206.583 71.9305 206.786 73.1677 207.194 74.7964C207.632 76.4565 207.851 77.6937 207.851 78.508C207.851 80.1681 207.272 80.9981 206.113 80.9981C205.518 80.9981 205.048 80.7476 204.704 80.2464C204.39 79.7453 204.234 79.1188 204.234 78.3671C204.234 77.6154 204.422 76.3312 204.797 74.5145C205.205 72.7292 205.408 71.4293 205.408 70.615C205.408 69.8006 205.393 69.2211 205.361 68.8766C205.361 68.5634 205.314 68.1562 205.22 67.6551C205.158 67.1852 205.032 66.8407 204.844 66.6214C204.406 66.0576 203.654 65.7757 202.589 65.7757C200.647 65.7757 199.676 67.4671 199.676 70.8499L199.958 78.555C199.958 80.6223 199.661 81.6559 199.066 81.6559C198.47 81.6559 198.173 81.0921 198.173 79.9645Z" fill="url(#paint2_linear_434_833)"/>
<path d="M284.903 82.8774L285.42 73.6688C285.42 68.4068 284.762 65.7757 283.446 65.7757C282.131 65.7757 281.473 67.4358 281.473 70.7559V72.1184C281.473 73.4652 281.771 75.4698 282.366 78.1322C282.992 80.7945 283.306 82.8148 283.306 84.193C283.306 86.3228 282.507 87.3878 280.909 87.3878C279.343 87.3878 278.56 86.3228 278.56 84.193C278.56 82.7521 278.889 80.6536 279.547 77.8973C280.205 75.141 280.534 73.0424 280.534 71.6016L280.44 52.4327C280.44 51.4617 280.565 50.71 280.815 50.1775C281.097 49.645 281.661 49.2535 282.507 49.0029L282.037 47.2176C281.598 47.3429 281.207 47.4055 280.862 47.4055C280.549 47.4055 280.22 47.2959 279.876 47.0766C279.469 46.7947 278.999 46.231 278.466 45.3853L254.646 6.57757C253.706 5.04281 252.422 3.78994 250.794 2.81896L251.216 2.02025C252.782 2.89726 254.552 3.33577 256.525 3.33577L275.459 3.2418C277.339 3.2418 278.67 2.56839 279.453 1.22155L280.909 2.02025C280.502 2.77198 280.299 3.602 280.299 4.51034C280.299 5.38735 280.925 6.90645 282.178 9.06766C283.462 11.2289 284.856 13.3274 286.359 15.3633C287.894 17.3993 289.288 19.6544 290.541 22.1288C291.825 24.6033 292.467 26.7488 292.467 28.5655H293.454V28.1896C293.454 25.2454 295.49 20.9543 299.562 15.3164C303.633 9.67843 305.669 5.90416 305.669 3.99353C305.669 3.49238 305.45 2.83462 305.012 2.02025L306.468 1.22155C307.251 2.56839 308.598 3.2418 310.508 3.2418L328.315 3.33577C330.257 3.33577 332.011 2.89726 333.577 2.02025L334 2.81896C332.308 3.82126 331.009 5.07413 330.1 6.57757L306.045 45.3853C305.231 46.7321 304.401 47.4055 303.555 47.4055C303.211 47.4055 302.85 47.3429 302.474 47.2176L301.911 48.9559C303.414 49.4258 304.166 50.9919 304.166 53.6542L303.884 60.1848C303.884 63.1917 304.542 65.3529 305.857 66.6684L304.871 67.6081C303.649 66.3865 302.099 65.7757 300.219 65.7757H289.225C287.221 65.7757 286.218 68.6104 286.218 74.2796L286.923 83.0184C286.923 84.1146 286.579 84.6628 285.89 84.6628C285.232 84.6628 284.903 84.0677 284.903 82.8774Z" fill="url(#paint3_linear_434_833)"/>
<defs>
<linearGradient id="paint0_linear_434_833" x1="0" y1="52.0803" x2="334" y2="52.0803" gradientUnits="userSpaceOnUse">
<stop stop-color="#0C9190"/>
<stop offset="0.490043" stop-color="#108860"/>
<stop offset="1" stop-color="#0D8B74"/>
</linearGradient>
<linearGradient id="paint1_linear_434_833" x1="0" y1="52.0803" x2="334" y2="52.0803" gradientUnits="userSpaceOnUse">
<stop stop-color="#0C9190"/>
<stop offset="0.490043" stop-color="#108860"/>
<stop offset="1" stop-color="#0D8B74"/>
</linearGradient>
<linearGradient id="paint2_linear_434_833" x1="0" y1="52.0803" x2="334" y2="52.0803" gradientUnits="userSpaceOnUse">
<stop stop-color="#0C9190"/>
<stop offset="0.490043" stop-color="#108860"/>
<stop offset="1" stop-color="#0D8B74"/>
</linearGradient>
<linearGradient id="paint3_linear_434_833" x1="0" y1="52.0803" x2="334" y2="52.0803" gradientUnits="userSpaceOnUse">
<stop stop-color="#0C9190"/>
<stop offset="0.490043" stop-color="#108860"/>
<stop offset="1" stop-color="#0D8B74"/>
</linearGradient>
</defs>
</svg>
